<svg width="21" height="21" viewBox="0 0 21 21" fill="none" xmlns="http://www.w3.org/2000/svg">
<circle cx="10.5" cy="10.5" r="10.5" fill="#F45546"/>
<path d="M10.5 12C11.8788 12 13 10.8788 13 9.5C13 8.12125 11.8788 7 10.5 7C9.12125 7 8 8.12125 8 9.5C8 10.8788 9.12125 12 10.5 12ZM10.5 8.25C11.1894 8.25 11.75 8.81062 11.75 9.5C11.75 10.1894 11.1894 10.75 10.5 10.75C9.81062 10.75 9.25 10.1894 9.25 9.5C9.25 8.81062 9.81062 8.25 10.5 8.25Z" fill="white"/>
<path d="M10.1013 17.8699C10.2176 17.9545 10.357 18 10.5 18C10.643 18 10.7824 17.9545 10.8987 17.8699C11.1077 17.7194 16.0199 14.1081 15.9999 9.60004C15.9999 6.51232 13.5325 4 10.5 4C7.46747 4 5.00006 6.51232 5.00006 9.59654C4.98012 14.1081 9.89226 17.7194 10.1013 17.8699ZM10.5 5.40001C12.7749 5.40001 14.625 7.28373 14.625 9.60354C14.6394 12.7102 11.6082 15.4997 10.5 16.4146C9.39245 15.499 6.36061 12.7088 6.37505 9.60004C6.37505 7.28373 8.22509 5.40001 10.5 5.40001Z" fill="white"/>
</svg>
