<svg width="82" height="41" viewBox="0 0 82 41" fill="none" xmlns="http://www.w3.org/2000/svg">
<path d="M1.694 22V6.49H8.426C10.1273 6.49 11.44 6.91533 12.364 7.766C13.288 8.61667 13.75 9.80467 13.75 11.33C13.75 12.8553 13.288 14.0507 12.364 14.916C11.44 15.7667 10.1273 16.192 8.426 16.192H4.51V22H1.694ZM4.51 13.97H7.986C10.01 13.97 11.022 13.09 11.022 11.33C11.022 9.58467 10.01 8.712 7.986 8.712H4.51V13.97ZM16.0456 22V6.49H18.8616V22H16.0456ZM21.5731 22V19.932L29.7571 8.844H21.5731V6.49H33.0571V8.558L24.8731 19.646H33.3871V22H21.5731ZM34.8934 22V19.932L43.0774 8.844H34.8934V6.49H46.3774V8.558L38.1934 19.646H46.7074V22H34.8934ZM46.9868 22L54.0048 6.49H56.3148L63.3328 22H60.4728L58.9328 18.414H51.3648L49.8468 22H46.9868ZM55.1268 9.548L52.3328 16.17H57.9648L55.1708 9.548H55.1268Z" fill="#293133"/>
<path d="M22.078 36V26.13H26.362C27.4447 26.13 28.28 26.4007 28.868 26.942C29.456 27.4833 29.75 28.2393 29.75 29.21C29.75 30.1807 29.456 30.9413 28.868 31.492C28.28 32.0333 27.4447 32.304 26.362 32.304H23.87V36H22.078ZM23.87 30.89H26.082C27.37 30.89 28.014 30.33 28.014 29.21C28.014 28.0993 27.37 27.544 26.082 27.544H23.87V30.89ZM31.2108 36V26.13H35.4948C36.5775 26.13 37.4128 26.3913 38.0008 26.914C38.5888 27.4273 38.8828 28.1507 38.8828 29.084C38.8828 29.8213 38.6915 30.4327 38.3088 30.918C37.9261 31.394 37.3755 31.716 36.6568 31.884C37.1328 32.0333 37.5248 32.3927 37.8328 32.962L39.4848 36H37.5108L35.8028 32.85C35.6348 32.542 35.4341 32.332 35.2008 32.22C34.9768 32.108 34.6875 32.052 34.3328 32.052H33.0028V36H31.2108ZM33.0028 30.722H35.1868C36.4935 30.722 37.1468 30.19 37.1468 29.126C37.1468 28.0713 36.4935 27.544 35.1868 27.544H33.0028V30.722ZM45.1641 36.14C44.2121 36.14 43.3768 35.93 42.6581 35.51C41.9488 35.09 41.3981 34.502 41.0061 33.746C40.6141 32.9807 40.4181 32.0847 40.4181 31.058C40.4181 30.022 40.6141 29.126 41.0061 28.37C41.3981 27.614 41.9488 27.0307 42.6581 26.62C43.3674 26.2 44.2028 25.99 45.1641 25.99C46.1254 25.99 46.9608 26.2 47.6701 26.62C48.3794 27.0307 48.9301 27.614 49.3221 28.37C49.7141 29.126 49.9101 30.0173 49.9101 31.044C49.9101 32.08 49.7141 32.9807 49.3221 33.746C48.9301 34.502 48.3794 35.09 47.6701 35.51C46.9608 35.93 46.1254 36.14 45.1641 36.14ZM45.1641 34.6C46.0694 34.6 46.7741 34.2873 47.2781 33.662C47.7821 33.0367 48.0341 32.1687 48.0341 31.058C48.0341 29.938 47.7821 29.07 47.2781 28.454C46.7834 27.838 46.0788 27.53 45.1641 27.53C44.2588 27.53 43.5541 27.838 43.0501 28.454C42.5461 29.07 42.2941 29.938 42.2941 31.058C42.2941 32.1687 42.5461 33.0367 43.0501 33.662C43.5541 34.2873 44.2588 34.6 45.1641 34.6ZM50.1755 36.126L50.0495 34.656L51.0435 34.6C51.8741 34.544 52.2895 34.0867 52.2895 33.228V26.13H54.0815V33.214C54.0815 34.9873 53.1621 35.9393 51.3235 36.07L50.1755 36.126ZM56.244 36V26.13H62.81V27.558H57.966V30.274H62.502V31.702H57.966V34.572H62.81V36H56.244ZM69.1759 36.14C68.1492 36.14 67.2672 35.9347 66.5299 35.524C65.8019 35.104 65.2419 34.516 64.8499 33.76C64.4579 32.9947 64.2619 32.094 64.2619 31.058C64.2619 30.022 64.4579 29.126 64.8499 28.37C65.2419 27.614 65.8019 27.0307 66.5299 26.62C67.2672 26.2 68.1492 25.99 69.1759 25.99C69.8385 25.99 70.4639 26.0927 71.0519 26.298C71.6492 26.5033 72.1392 26.7973 72.5219 27.18L71.9339 28.608C71.5139 28.2533 71.0845 27.9967 70.6459 27.838C70.2072 27.67 69.7359 27.586 69.2319 27.586C68.2332 27.586 67.4725 27.8893 66.9499 28.496C66.4272 29.0933 66.1659 29.9473 66.1659 31.058C66.1659 32.1687 66.4272 33.0273 66.9499 33.634C67.4725 34.2407 68.2332 34.544 69.2319 34.544C69.7359 34.544 70.2072 34.4647 70.6459 34.306C71.0845 34.138 71.5139 33.8767 71.9339 33.522L72.5219 34.95C72.1392 35.3233 71.6492 35.6173 71.0519 35.832C70.4639 36.0373 69.8385 36.14 69.1759 36.14ZM76.3291 36V27.628H72.9411V26.13H81.5091V27.628H78.1211V36H76.3291Z" fill="#44944A"/>
</svg>
